<?xml version="1.0" standalone="no"?>
<!DOCTYPE svg PUBLIC "-//W3C//DTD SVG 20010904//EN"
 "http://www.w3.org/TR/2001/REC-SVG-20010904/DTD/svg10.dtd">
<svg version="1.0" xmlns="http://www.w3.org/2000/svg"
 width="360.000000pt" height="360.000000pt" viewBox="0 0 360.000000 360.000000"
 preserveAspectRatio="xMidYMid meet">

<g transform="translate(0.000000,360.000000) scale(0.100000,-0.100000)"
fill="#000000" stroke="none">
<path d="M1615 3590 c-119 -10 -307 -53 -425 -97 -616 -229 -1049 -743 -1166
-1384 -24 -135 -30 -423 -10 -555 41 -278 137 -528 293 -764 129 -194 384
-432 588 -550 174 -99 380 -175 589 -216 111 -22 376 -29 516 -15 224 24 481
107 687 224 238 135 458 340 613 571 66 99 170 313 209 431 95 287 114 646 50
942 -79 367 -291 729 -567 969 -386 335 -857 487 -1377 444z m-467 -1287 c22
-10 162 -141 338 -315 165 -164 304 -298 308 -298 5 0 138 128 297 284 158
156 309 297 335 315 44 29 54 31 132 31 100 0 138 -15 199 -77 52 -54 66 -96
67 -194 1 -68 -2 -81 -29 -120 -38 -57 -807 -826 -864 -864 -36 -25 -56 -30
-117 -33 -122 -7 -117 -10 -582 452 -312 311 -418 422 -437 460 -65 130 -3
304 129 362 45 19 180 18 224 -3z"/>
</g>
</svg>
